<svg id="Layer_1" enable-background="new 0 0 128 128" height="512" viewBox="0 0 128 128" width="512" xmlns="http://www.w3.org/2000/svg"><path d="m112.055 63.742h-22.521v-40.257c0-4.409-3.587-7.997-7.997-7.997h-42.589c-.022 0-.041.011-.063.013-.089.006-.174.023-.258.052-.033.011-.064.02-.095.034-.106.049-.207.111-.293.197l-23.598 23.736c-.085.086-.146.187-.195.292-.014.031-.022.062-.033.094-.029.084-.045.169-.051.257-.001.021-.012.041-.012.062v66.291c0 3.767 2.622 6.926 6.135 7.769.373 1.282 1.545 2.228 2.946 2.228h10.664c1.317 0 2.435-.835 2.875-2h1.835c.44 1.165 1.558 2 2.875 2h10.664c1.317 0 2.435-.835 2.875-2h1.835c.44 1.165 1.558 2 2.875 2h10.664c1.317 0 2.435-.835 2.875-2h3.054c.99 1.21 2.476 2 4.159 2h31.375c2.976 0 5.396-2.421 5.396-5.396v-41.978c-.001-2.976-2.421-5.397-5.397-5.397z" fill="#e6e7e8"/><path d="m77.733 12.488h-42.589l-23.598 23.737v66.291c0 3.107 2.028 5.738 4.831 6.651.062-.697.348-1.329.798-1.816-.507-.549-.824-1.276-.824-2.081s.317-1.532.824-2.081c-.507-.549-.824-1.276-.824-2.081s.317-1.532.824-2.081c-.507-.549-.824-1.276-.824-2.081s.317-1.532.824-2.081c-.507-.549-.824-1.276-.824-2.081 0-1.699 1.382-3.081 3.081-3.081h10.664c1.699 0 3.081 1.382 3.081 3.081 0 .805-.317 1.532-.824 2.081.507.549.824 1.276.824 2.081s-.317 1.532-.824 2.081c.507.549.824 1.276.824 2.081s-.317 1.532-.824 2.081c.507.549.824 1.276.824 2.081s-.317 1.532-.824 2.081c.507.549.824 1.276.824 2.081 0 .028-.007.053-.008.081h1.439c-.001-.028-.008-.053-.008-.081 0-.805.317-1.532.824-2.081-.507-.549-.824-1.276-.824-2.081s.317-1.532.824-2.081c-.507-.549-.824-1.276-.824-2.081 0-1.699 1.382-3.081 3.081-3.081h10.664c1.699 0 3.081 1.382 3.081 3.081 0 .805-.317 1.532-.824 2.081.507.549.824 1.276.824 2.081s-.317 1.532-.824 2.081c.507.549.824 1.276.824 2.081 0 .028-.007.053-.008.081h1.439c-.001-.028-.008-.053-.008-.081 0-.805.317-1.532.824-2.081-.507-.549-.824-1.276-.824-2.081 0-1.699 1.382-3.081 3.081-3.081h10.664c1.699 0 3.081 1.382 3.081 3.081 0 .805-.317 1.532-.824 2.081.507.549.824 1.276.824 2.081 0 .028-.007.053-.008.081h3.343c-.454-.692-.724-1.515-.724-2.4v-41.97c0-2.42 1.98-4.4 4.4-4.4h8.045v-41.259c-.001-3.864-3.134-6.996-6.998-6.996z" fill="#fff"/><path d="m35.151 12.488v16.737c0 3.864-3.137 7.001-7.001 7.001h-16.603z" fill="#d4fbff"/><path d="m68.582 17.215v1.271c.839.086 1.559.259 2.159.518s1.124.651 1.571 1.177c.353.4.626.812.818 1.236s.288.812.288 1.165c0 .392-.143.732-.429 1.018s-.633.43-1.041.43c-.769 0-1.267-.416-1.494-1.247-.259-.981-.883-1.632-1.871-1.953v4.895c.973.267 1.747.51 2.324.73s1.092.537 1.547.953c.486.431.861.947 1.124 1.547s.394 1.257.394 1.971c0 .894-.21 1.732-.63 2.512-.42.781-1.037 1.418-1.853 1.912s-1.785.788-2.906.883v.922c0 .463-.045.8-.135 1.012s-.288.318-.594.318c-.282 0-.48-.086-.594-.259s-.171-.439-.171-.8v-1.169c-.918-.102-1.72-.318-2.406-.647s-1.259-.739-1.718-1.23c-.459-.49-.798-1-1.018-1.53s-.329-1.049-.329-1.559c0-.377.147-.716.441-1.018s.661-.453 1.1-.453c.353 0 .651.082.894.247s.412.396.506.694c.212.643.396 1.136.553 1.477s.394.653.712.935.739.498 1.265.647v-5.472c-1.051-.29-1.93-.614-2.636-.971s-1.279-.865-1.718-1.524-.659-1.506-.659-2.542c0-1.349.43-2.455 1.289-3.318s2.1-1.365 3.724-1.506v-1.247c0-.659.247-.988.741-.988.501-.002.752.319.752.963zm-1.494 8.072v-4.507c-.659.196-1.173.455-1.541.777-.369.322-.553.808-.553 1.459 0 .62.173 1.088.518 1.406.344.318.87.606 1.576.865zm1.494 3.495v5.154c.792-.157 1.404-.475 1.836-.953.431-.479.647-1.036.647-1.671 0-.682-.21-1.21-.63-1.583-.419-.373-1.037-.688-1.853-.947z" fill="#fa759e"/><g fill="#ffd7e5"><path d="m66.592 107.35h-10.664c-1.145 0-2.081.937-2.081 2.081s.936 2.081 2.081 2.081h10.664c1.145 0 2.081-.937 2.081-2.081s-.936-2.081-2.081-2.081z"/><path d="m48.343 99.026h-10.663c-1.145 0-2.081.936-2.081 2.081s.936 2.081 2.081 2.081h10.664c1.145 0 2.081-.937 2.081-2.081 0-1.145-.937-2.081-2.082-2.081z"/><path d="m66.592 103.188h-10.664c-1.145 0-2.081.936-2.081 2.081s.936 2.081 2.081 2.081h10.664c1.145 0 2.081-.937 2.081-2.081 0-1.145-.936-2.081-2.081-2.081z"/><path d="m48.343 103.188h-10.663c-1.145 0-2.081.936-2.081 2.081s.936 2.081 2.081 2.081h10.664c1.145 0 2.081-.937 2.081-2.081 0-1.145-.937-2.081-2.082-2.081z"/><path d="m48.343 107.35h-10.663c-1.145 0-2.081.937-2.081 2.081s.936 2.081 2.081 2.081h10.664c1.145 0 2.081-.937 2.081-2.081s-.937-2.081-2.082-2.081z"/><path d="m30.095 90.702h-10.664c-1.145 0-2.081.937-2.081 2.081 0 1.145.937 2.081 2.081 2.081h10.664c1.145 0 2.081-.937 2.081-2.081 0-1.145-.936-2.081-2.081-2.081z"/><path d="m30.095 94.864h-10.664c-1.145 0-2.081.936-2.081 2.081s.937 2.081 2.081 2.081h10.664c1.145 0 2.081-.937 2.081-2.081 0-1.145-.936-2.081-2.081-2.081z"/><path d="m30.095 99.026h-10.664c-1.145 0-2.081.936-2.081 2.081s.937 2.081 2.081 2.081h10.664c1.145 0 2.081-.937 2.081-2.081 0-1.145-.936-2.081-2.081-2.081z"/><path d="m30.095 103.188h-10.664c-1.145 0-2.081.936-2.081 2.081s.937 2.081 2.081 2.081h10.664c1.145 0 2.081-.937 2.081-2.081 0-1.145-.936-2.081-2.081-2.081z"/><path d="m30.095 107.35h-10.664c-1.145 0-2.081.937-2.081 2.081s.937 2.081 2.081 2.081h10.664c1.145 0 2.081-.937 2.081-2.081s-.936-2.081-2.081-2.081z"/></g><path d="m112.455 65.143v41.97c0 2.42-1.98 4.4-4.4 4.4h-31.37c-2.42 0-4.4-1.98-4.4-4.4v-41.97c0-2.42 1.98-4.4 4.4-4.4h31.37c2.42 0 4.4 1.98 4.4 4.4z" fill="#fff"/><path d="m112.453 68.143v38.97c0 2.42-1.98 4.4-4.4 4.4h-31.37c-2.42 0-4.4-1.98-4.4-4.4v-38.97c0-2.42 1.98-4.4 4.4-4.4h31.37c2.42 0 4.4 1.98 4.4 4.4z" fill="#6dc9f7"/><path d="m73.409 43.725h-50.833c-.552 0-1 .447-1 1s.448 1 1 1h50.833c.552 0 1-.447 1-1s-.447-1-1-1z" fill="#3a2c60"/><path d="m73.409 56.133h-50.833c-.552 0-1 .447-1 1s.448 1 1 1h50.833c.552 0 1-.447 1-1s-.447-1-1-1z" fill="#3a2c60"/><path d="m54.207 68.54h-31.631c-.552 0-1 .447-1 1s.448 1 1 1h31.631c.552 0 1-.447 1-1s-.447-1-1-1z" fill="#3a2c60"/><path d="m48.207 80.947h-25.631c-.552 0-1 .447-1 1s.448 1 1 1h25.631c.552 0 1-.447 1-1s-.447-1-1-1z" fill="#3a2c60"/><path d="m108.055 59.742h-22.322v-40.258c0-4.409-3.587-7.996-7.997-7.996h-42.589c-.021 0-.04.011-.061.012-.09.006-.176.023-.261.052-.032.011-.062.019-.093.033-.107.049-.208.111-.294.197l-23.598 23.737c-.085.086-.146.187-.195.292-.014.031-.022.062-.033.094-.029.084-.045.169-.051.257-.001.021-.012.041-.012.062v66.291c0 3.69 2.516 6.795 5.919 7.714.354 1.311 1.542 2.283 2.963 2.283h10.664c1.317 0 2.435-.835 2.875-2h1.835c.44 1.165 1.558 2 2.875 2h10.664c1.317 0 2.435-.835 2.875-2h1.835c.44 1.165 1.558 2 2.875 2h10.664c1.317 0 2.435-.835 2.875-2h3.054c.99 1.21 2.476 2 4.159 2h31.375c2.976 0 5.396-2.421 5.396-5.396v-14.044c0-.553-.448-1-1-1s-1 .447-1 1v14.044c0 1.873-1.523 3.396-3.396 3.396h-31.376c-1.873 0-3.396-1.523-3.396-3.396v-41.977c0-1.873 1.523-3.396 3.396-3.396h31.375c1.873 0 3.396 1.523 3.396 3.396v13.131c0 .553.448 1 1 1s1-.447 1-1v-13.131c0-2.976-2.42-5.397-5.396-5.397zm-84.783-33.891 10.875-10.938v14.316c0 3.307-2.69 5.996-5.997 5.996h-14.197zm-6.922 83.58c0 .163.024.32.048.477-.027-.155-.048-.313-.048-.477zm2-16.648c0-.596.485-1.081 1.081-1.081h10.664c.596 0 1.081.485 1.081 1.081s-.485 1.081-1.081 1.081h-10.664c-.596 0-1.081-.485-1.081-1.081zm0 12.486c0-.596.485-1.081 1.081-1.081h10.664c.596 0 1.081.485 1.081 1.081s-.485 1.081-1.081 1.081h-10.664c-.596 0-1.081-.485-1.081-1.081zm0-4.162c0-.596.485-1.081 1.081-1.081h10.664c.596 0 1.081.485 1.081 1.081s-.485 1.081-1.081 1.081h-10.664c-.596 0-1.081-.485-1.081-1.081zm0-4.162c0-.596.485-1.081 1.081-1.081h10.664c.596 0 1.081.485 1.081 1.081s-.485 1.081-1.081 1.081h-10.664c-.596 0-1.081-.485-1.081-1.081zm11.745 13.568h-10.664c-.596 0-1.081-.485-1.081-1.081s.485-1.081 1.081-1.081h10.664c.596 0 1.081.485 1.081 1.081s-.485 1.081-1.081 1.081zm3.024-.519c.034-.183.057-.37.057-.563 0-.171-.024-.337-.051-.5.031.162.051.329.051.5 0 .194-.021.381-.057.563zm1.48-.563c0-.172.02-.338.051-.5-.027.164-.051.329-.051.5 0 .193.023.38.057.563-.036-.182-.057-.37-.057-.563zm2-8.324c0-.596.485-1.081 1.081-1.081h10.664c.596 0 1.081.485 1.081 1.081s-.485 1.081-1.081 1.081h-10.664c-.596 0-1.081-.485-1.081-1.081zm0 4.162c0-.596.485-1.081 1.081-1.081h10.664c.596 0 1.081.485 1.081 1.081s-.485 1.081-1.081 1.081h-10.664c-.596 0-1.081-.485-1.081-1.081zm11.745 5.244h-10.664c-.596 0-1.081-.485-1.081-1.081s.485-1.081 1.081-1.081h10.664c.596 0 1.081.485 1.081 1.081s-.485 1.081-1.081 1.081zm3.024-.519c.034-.183.057-.37.057-.563 0-.171-.024-.337-.051-.5.031.162.051.329.051.5 0 .194-.021.381-.057.563zm1.479-.563c0-.172.02-.338.051-.5-.027.164-.051.329-.051.5 0 .193.023.38.057.563-.036-.182-.057-.37-.057-.563zm2-4.162c0-.596.485-1.081 1.081-1.081h10.664c.596 0 1.081.485 1.081 1.081s-.485 1.081-1.081 1.081h-10.664c-.596 0-1.081-.485-1.081-1.081zm11.745 5.244h-10.664c-.596 0-1.081-.485-1.081-1.081s.485-1.081 1.081-1.081h10.664c.596 0 1.081.485 1.081 1.081s-.485 1.081-1.081 1.081zm3.024-.519c.034-.183.057-.37.057-.563 0-.171-.024-.337-.051-.5.031.162.051.329.051.5 0 .194-.02.381-.057.563zm1.668-44.855v41.978c0 .486.085.948.206 1.396h-1.973c-.138-.438-.364-.833-.668-1.162.507-.549.824-1.276.824-2.081 0-1.699-1.382-3.081-3.081-3.081h-10.664c-1.699 0-3.081 1.382-3.081 3.081 0 .805.317 1.532.824 2.081-.304.329-.53.725-.668 1.162h-1.734c-.138-.438-.364-.833-.668-1.162.507-.549.824-1.276.824-2.081s-.317-1.532-.824-2.081c.507-.549.824-1.276.824-2.081 0-1.699-1.382-3.081-3.081-3.081h-10.664c-1.699 0-3.081 1.382-3.081 3.081 0 .805.317 1.532.824 2.081-.507.549-.824 1.276-.824 2.081s.317 1.532.824 2.081c-.304.329-.53.725-.668 1.162h-1.735c-.138-.438-.364-.833-.668-1.162.507-.549.824-1.276.824-2.081s-.317-1.532-.824-2.081c.507-.549.824-1.276.824-2.081s-.317-1.532-.824-2.081c.507-.549.824-1.276.824-2.081s-.317-1.532-.824-2.081c.507-.549.824-1.276.824-2.081 0-1.699-1.382-3.081-3.081-3.081h-10.664c-1.699 0-3.081 1.382-3.081 3.081 0 .805.317 1.532.824 2.081-.507.549-.824 1.276-.824 2.081s.317 1.532.824 2.081c-.507.549-.824 1.276-.824 2.081s.317 1.532.824 2.081c-.507.549-.824 1.276-.824 2.081s.317 1.532.824 2.081c-.228.247-.419.527-.557.838-2.362-.806-4.068-3.041-4.068-5.673v-65.292h15.601c4.409 0 7.997-3.587 7.997-7.996v-15.74h41.589c3.307 0 5.997 2.689 5.997 5.996v40.258h-7.053c-2.976 0-5.396 2.421-5.396 5.397z" fill="#3a2c60"/><path d="m112.451 81.915c-.552 0-1 .447-1 1v5.678c0 .553.448 1 1 1s1-.447 1-1v-5.678c0-.553-.448-1-1-1z" fill="#3a2c60"/><path d="m106.397 67.655h-28.057c-1.342 0-2.43 1.088-2.43 2.43v7.832c0 1.342 1.088 2.43 2.43 2.43h28.057c1.342 0 2.43-1.088 2.43-2.43v-7.832c0-1.342-1.088-2.43-2.43-2.43z" fill="#d4fbff"/><path d="m84.835 83.246h-6.98c-.786 0-1.423.637-1.423 1.423v6.979c0 .786.637 1.424 1.423 1.424h6.98c.786 0 1.423-.637 1.423-1.424v-6.979c0-.786-.637-1.423-1.423-1.423z" fill="#ffd7e5"/><path d="m96.3 83.246h-6.98c-.786 0-1.423.637-1.423 1.423v6.979c0 .786.637 1.424 1.423 1.424h6.98c.786 0 1.423-.637 1.423-1.424v-6.979c.001-.786-.636-1.423-1.423-1.423z" fill="#ffd7e5"/><path d="m84.835 95.203h-6.98c-.786 0-1.423.637-1.423 1.424v6.98c0 .786.637 1.423 1.423 1.423h6.98c.786 0 1.423-.637 1.423-1.423v-6.98c0-.786-.637-1.424-1.423-1.424z" fill="#ffd7e5"/><path d="m96.3 95.203h-6.98c-.786 0-1.423.637-1.423 1.424v6.98c0 .786.637 1.423 1.423 1.423h6.98c.786 0 1.423-.637 1.423-1.423v-6.98c.001-.786-.636-1.424-1.423-1.424z" fill="#ffd7e5"/><path d="m106.87 83.238h-6.411c-.792 0-1.434.642-1.434 1.434v18.934c0 .792.642 1.435 1.434 1.435h6.411c.792 0 1.434-.642 1.434-1.435v-18.934c.001-.792-.642-1.434-1.434-1.434z" fill="#ffd7e5"/><path d="m93.379 88.593h-1.137c-.173 0-.304-.04-.394-.121s-.135-.184-.135-.311c0-.13.044-.235.131-.315.088-.08.22-.121.398-.121h1.137c.178 0 .31.04.398.121s.131.185.131.315c0 .127-.043.231-.13.311s-.219.121-.399.121z" fill="#3a2c60"/><path d="m83.395 87.828c-.098-.089-.245-.134-.443-.134h-1.113v-1.113c0-.2-.045-.349-.134-.445-.09-.096-.205-.145-.347-.145-.144 0-.261.049-.351.146-.09.098-.134.245-.134.443v1.113h-1.113c-.198 0-.346.045-.443.134-.098.09-.146.207-.146.351 0 .142.05.257.15.347s.247.134.439.134h1.113v1.113c0 .198.045.346.134.443.09.097.207.146.351.146.142 0 .257-.05.347-.15s.134-.247.134-.439v-1.113h1.113c.201 0 .349-.045.445-.134s.144-.205.144-.347c0-.143-.049-.26-.146-.35z" fill="#3a2c60"/><path d="m93.379 100.55h-1.137c-.173 0-.304-.04-.394-.121s-.135-.184-.135-.311c0-.13.044-.235.131-.315.088-.08.22-.121.398-.121h1.137c.178 0 .31.04.398.121s.131.185.131.315c0 .127-.043.231-.13.311s-.219.121-.399.121z" fill="#3a2c60"/><path d="m82.063 101.707-.713-1.047-.731 1.047c-.106.146-.195.251-.268.313s-.166.094-.279.094c-.125 0-.231-.039-.318-.117-.088-.078-.131-.167-.131-.268 0-.103.067-.251.202-.443l.889-1.274-.788-1.062c-.137-.175-.205-.327-.205-.457 0-.101.041-.188.122-.263s.188-.112.32-.112c.115 0 .211.032.286.097s.164.167.264.306l.637.871.619-.871c.103-.144.193-.247.268-.309.076-.062.17-.094.282-.094.13 0 .237.037.322.11s.128.161.128.264c0 .074-.017.146-.052.214s-.088.149-.16.243l-.788 1.062.889 1.274c.139.199.209.349.209.45 0 .103-.043.192-.13.266s-.193.112-.32.112c-.113 0-.208-.032-.286-.097-.078-.064-.167-.167-.268-.309z" fill="#3a2c60"/><path d="m92.269 98.656c0-.17.053-.302.16-.396s.236-.14.387-.14c.146 0 .272.047.378.142s.158.226.158.394c0 .134-.058.258-.173.371s-.24.169-.374.169c-.146 0-.272-.054-.378-.162s-.158-.234-.158-.378zm.547 3.458c-.149 0-.277-.048-.385-.144s-.162-.23-.162-.403c0-.146.052-.272.155-.378s.23-.158.381-.158.28.052.387.157c.107.104.16.231.16.38 0 .17-.053.304-.16.401s-.232.145-.376.145z" fill="#3a2c60"/><path d="m105.216 93.755h-2.956c-.193 0-.339-.045-.439-.134-.1-.09-.15-.205-.15-.347 0-.144.049-.261.146-.351s.245-.134.443-.134h2.956c.198 0 .346.045.443.134s.146.207.146.351c0 .142-.048.257-.144.347-.096.089-.245.134-.445.134z" fill="#3a2c60"/><path d="m105.216 95.39h-2.956c-.193 0-.339-.045-.439-.134-.1-.09-.15-.205-.15-.347 0-.144.049-.261.146-.351s.245-.134.443-.134h2.956c.198 0 .346.045.443.134s.146.207.146.351c0 .142-.048.257-.144.347-.096.089-.245.134-.445.134z" fill="#3a2c60"/></svg>